<svg xmlns="http://www.w3.org/2000/svg" viewBox="0 0 100 100">
  <!-- 금산군 CI: 주황+초록 당근/인삼 형태 -->
  <circle cx="50" cy="50" r="45" fill="white"/>
  <!-- 인삼 뿌리 -->
  <path d="M50,85 Q42,75 40,65 Q38,55 44,48 L50,42 L56,48 Q62,55 60,65 Q58,75 50,85 Z" fill="#e07020"/>
  <!-- 잔뿌리 왼쪽 -->
  <path d="M42,65 Q32,68 28,78" fill="none" stroke="#c05010" stroke-width="3" stroke-linecap="round"/>
  <!-- 잔뿌리 오른쪽 -->
  <path d="M58,65 Q68,68 72,78" fill="none" stroke="#c05010" stroke-width="3" stroke-linecap="round"/>
  <!-- 잎 -->
  <path d="M50,42 Q38,30 30,25 Q35,35 44,40" fill="#2a8a00"/>
  <path d="M50,42 Q62,30 70,25 Q65,35 56,40" fill="#2a8a00"/>
  <path d="M50,38 Q50,22 50,15" fill="none" stroke="#2a8a00" stroke-width="4" stroke-linecap="round"/>
  <!-- 줄기 잎 -->
  <path d="M50,30 Q40,22 35,18" fill="none" stroke="#2a8a00" stroke-width="3" stroke-linecap="round"/>
  <path d="M50,30 Q60,22 65,18" fill="none" stroke="#2a8a00" stroke-width="3" stroke-linecap="round"/>
</svg>
