<svg xmlns="http://www.w3.org/2000/svg" viewBox="0 0 100 100">
  <!-- 태안군 CI: 주황 태양+파란 물결 (안면도/해안) -->
  <circle cx="50" cy="50" r="45" fill="white"/>
  <!-- 수평선 위 태양 -->
  <circle cx="50" cy="42" r="20" fill="#ff8800"/>
  <circle cx="50" cy="42" r="13" fill="#ffcc00"/>
  <!-- 태양 광선 -->
  <line x1="50" y1="16" x2="50" y2="10" stroke="#ff8800" stroke-width="4" stroke-linecap="round"/>
  <line x1="72" y1="20" x2="76" y2="15" stroke="#ff8800" stroke-width="3" stroke-linecap="round"/>
  <line x1="28" y1="20" x2="24" y2="15" stroke="#ff8800" stroke-width="3" stroke-linecap="round"/>
  <line x1="82" y1="42" x2="88" y2="42" stroke="#ff8800" stroke-width="3" stroke-linecap="round"/>
  <line x1="18" y1="42" x2="12" y2="42" stroke="#ff8800" stroke-width="3" stroke-linecap="round"/>
  <!-- 수평선 -->
  <line x1="12" y1="62" x2="88" y2="62" stroke="#0066aa" stroke-width="3"/>
  <!-- 물결 1 -->
  <path d="M12,68 Q25,61 37,68 Q50,75 63,68 Q75,61 88,68" fill="none" stroke="#0077cc" stroke-width="5" stroke-linecap="round"/>
  <!-- 물결 2 -->
  <path d="M15,78 Q28,71 40,78 Q53,85 66,78 Q78,71 85,78" fill="none" stroke="#0099dd" stroke-width="4" stroke-linecap="round" opacity="0.7"/>
</svg>
